<!-- Generated by IcoMoon.io -->
<svg version="1.1" xmlns="http://www.w3.org/2000/svg" width="23" height="32" viewBox="0 0 23 32">
<title>untitled7</title>
<path fill="#fff" d="M3.875 1.943v13.568q0 0.205-0.142 0.347t-0.335 0.142h-2.909q-0.205 0-0.347-0.142t-0.142-0.347v-13.568q0-0.205 0.142-0.347t0.347-0.142h2.909q0.193 0 0.335 0.142t0.142 0.347zM23.273 9.943q0 0.614-0.33 1.142t-0.852 0.79q0.534 0.295 0.858 0.813t0.324 1.131q0 0.909-0.636 1.545t-1.545 0.636h-5.091q-0.261 0-0.409 0.216-0.125 0.216-0.045 0.455 0.045 0.068 0.256 0.665t0.449 1.648 0.239 1.869q0 1.625-0.841 2.83-0.75 1.045-1.591 1.045-0.602 0-1.028-0.426t-0.426-1.028q0-0.932-0.148-1.659t-0.563-1.545-1.17-1.625-1.96-1.773-2.943-2.125v-10.182l4.989-2.318q0.557-0.239 1.364-0.415t1.409-0.176h5.091q0.909 0 1.545 0.636t0.636 1.545q0 0.477-0.193 0.864 0.727 0.239 1.188 0.869t0.46 1.415q0 0.648-0.295 1.159 0.568 0.273 0.915 0.807t0.347 1.193z"></path>
</svg>
