<?xml version="1.0" encoding="UTF-8"?>
<svg width="312px" height="612px" viewBox="0 0 312 612" version="1.1" xmlns="http://www.w3.org/2000/svg" xmlns:xlink="http://www.w3.org/1999/xlink">
    <!-- Generator: Sketch 51.3 (57544) - http://www.bohemiancoding.com/sketch -->
    <title>Shape</title>
    <desc>Created with Sketch.</desc>
    <defs></defs>
    <g id="Page-1" stroke="none" stroke-width="1" fill="none" fill-rule="evenodd">
        <g id="Schedule-View" transform="translate(0.000000, -125.000000)" fill="#3C337C" fill-rule="nonzero">
            <g id="bg-shape-4" transform="translate(156.000000, 431.000000) rotate(-90.000000) translate(-156.000000, -431.000000) translate(-150.000000, 275.000000)">
                <path d="M136.763265,0.250622951 C120.110204,9.63108197 103.873469,19.5042623 88.0530612,29.8701639 C37.6317551,62.9523934 -12.1275918,111.501639 3.40971429,162.85377 C13.401551,195.884852 49.8030612,220.497049 89.6954694,230.030951 C129.587878,239.564852 172.452857,236.117508 213.00098,228.696 C247.356272,222.399359 280.865544,213.330954 313.038,201.623607 C335.638286,193.404197 368.655061,170.009311 394.590122,175.44118 C434.301429,183.752656 463.483837,260.049443 492.291551,284.477508 C511.781878,301.008393 538.759837,316.368 565.875184,310.455344 C601.31498,302.726951 611.381755,265.747279 611.41298,235.703213 C611.487918,153.744393 585.346776,71.9339016 536.905102,0.250622951 L136.763265,0.250622951 Z" id="Shape"></path>
            </g>
        </g>
    </g>
</svg>