<!-- Generated by IcoMoon.io -->
<svg version="1.1" xmlns="http://www.w3.org/2000/svg" width="23" height="32" viewBox="0 0 23 32">
<title>untitled1</title>
<path fill="#fff" d="M21.716 19.045q0.125 0.159 0.125 0.352 0 0.182-0.125 0.341l-3.432 3.432q-0.159 0.125-0.341 0.125-0.193 0-0.352-0.125l-5.955-5.955-5.955 5.955q-0.159 0.125-0.352 0.125-0.182 0-0.341-0.125l-3.432-3.432q-0.125-0.159-0.125-0.341 0-0.193 0.125-0.352l5.955-5.955-5.955-5.955q-0.125-0.159-0.125-0.352 0-0.182 0.125-0.341l3.432-3.432q0.159-0.125 0.341-0.125 0.193 0 0.352 0.125l5.955 5.955 5.955-5.955q0.159-0.125 0.352-0.125 0.182 0 0.341 0.125l3.432 3.432q0.125 0.159 0.125 0.341 0 0.193-0.125 0.352l-5.955 5.955z"></path>
</svg>
