<!-- Generated by IcoMoon.io -->
<svg version="1.1" xmlns="http://www.w3.org/2000/svg" width="23" height="32" viewBox="0 0 23 32">
<title>untitled5</title>
<path fill="#fff" d="M3.875 19.875v2.909q0 0.205-0.142 0.347t-0.335 0.142h-2.909q-0.205 0-0.347-0.142t-0.142-0.347v-2.909q0-0.193 0.142-0.335t0.347-0.142h2.909q0.193 0 0.335 0.142t0.142 0.335zM3.875 11.636v2.909q0 0.205-0.142 0.347t-0.335 0.142h-2.909q-0.205 0-0.347-0.142t-0.142-0.347v-2.909q0-0.205 0.142-0.347t0.347-0.142h2.909q0.193 0 0.335 0.142t0.142 0.347zM3.875 3.398v2.909q0 0.193-0.142 0.335t-0.335 0.142h-2.909q-0.205 0-0.347-0.142t-0.142-0.335v-2.909q0-0.205 0.142-0.347t0.347-0.142h2.909q0.193 0 0.335 0.142t0.142 0.347zM23.273 19.875v2.909q0 0.205-0.142 0.347t-0.347 0.142h-16.477q-0.205 0-0.347-0.142t-0.142-0.347v-2.909q0-0.193 0.142-0.335t0.347-0.142h16.477q0.205 0 0.347 0.142t0.142 0.335zM23.273 11.636v2.909q0 0.205-0.142 0.347t-0.347 0.142h-16.477q-0.205 0-0.347-0.142t-0.142-0.347v-2.909q0-0.205 0.142-0.347t0.347-0.142h16.477q0.205 0 0.347 0.142t0.142 0.347zM23.273 3.398v2.909q0 0.193-0.142 0.335t-0.347 0.142h-16.477q-0.205 0-0.347-0.142t-0.142-0.335v-2.909q0-0.205 0.142-0.347t0.347-0.142h16.477q0.205 0 0.347 0.142t0.142 0.347z"></path>
</svg>
