<!-- Generated by IcoMoon.io -->
<svg version="1.1" xmlns="http://www.w3.org/2000/svg" width="23" height="32" viewBox="0 0 23 32">
<title>untitled6</title>
<path fill="#fff" d="M3.875 24.239q0 0.205-0.142 0.347t-0.335 0.142h-2.909q-0.205 0-0.347-0.142t-0.142-0.347v-13.568q0-0.205 0.142-0.347t0.347-0.142h2.909q0.193 0 0.335 0.142t0.142 0.347v13.568zM23.273 16.239q0 0.659-0.347 1.193t-0.915 0.807q0.295 0.568 0.295 1.159 0 0.784-0.46 1.415t-1.188 0.869q0.193 0.386 0.193 0.864 0 0.909-0.636 1.545t-1.545 0.636h-5.091q-0.602 0-1.409-0.176t-1.364-0.415l-4.989-2.318v-10.182q1.739-1.159 2.943-2.125t1.96-1.773 1.17-1.625 0.563-1.545 0.148-1.659q0-0.602 0.426-1.028t1.028-0.426q0.409 0 0.83 0.29t0.761 0.79q0.841 1.159 0.841 2.795 0 0.818-0.233 1.864t-0.46 1.682-0.25 0.636q-0.080 0.239 0.045 0.455 0.148 0.216 0.409 0.216h5.091q0.909 0 1.545 0.636t0.636 1.545q0 0.614-0.33 1.142t-0.852 0.801q0.534 0.284 0.858 0.801t0.324 1.131z"></path>
</svg>
